<?xml version="1.0" standalone="no"?>
<!DOCTYPE svg PUBLIC "-//W3C//DTD SVG 20010904//EN"
 "http://www.w3.org/TR/2001/REC-SVG-20010904/DTD/svg10.dtd">
<svg version="1.0" xmlns="http://www.w3.org/2000/svg"
 width="865.000000pt" height="239.000000pt" viewBox="0 0 865.000000 239.000000"
 preserveAspectRatio="xMidYMid meet">

<g transform="translate(0.000000,239.000000) scale(0.100000,-0.100000)"
fill="#000000" stroke="none">
<path d="M710 2363 c-51 -19 -63 -63 -29 -107 29 -37 35 -95 14 -136 -10 -18
-49 -67 -87 -107 -88 -93 -121 -161 -121 -252 -1 -106 38 -155 108 -137 35 9
49 40 36 78 -28 79 -1 147 99 253 81 86 109 139 110 209 0 71 -19 124 -61 168
-36 38 -42 41 -69 31z"/>
<path d="M1086 2349 c-32 -25 -33 -57 -5 -93 51 -65 31 -142 -61 -231 -65 -64
-104 -125 -125 -198 -32 -110 3 -207 73 -207 49 0 64 27 56 102 -9 86 11 130
105 232 83 89 110 141 111 210 0 71 -19 124 -61 168 -41 43 -56 46 -93 17z"/>
<path d="M1344 1965 c-91 -97 -104 -320 -19 -341 63 -16 105 23 86 78 -23 65
-11 117 43 192 16 22 17 30 7 55 -11 26 -47 51 -73 51 -6 0 -25 -16 -44 -35z"/>
<path d="M6446 1500 c-99 -39 -136 -97 -136 -215 l0 -75 -50 0 -50 0 0 -80 0
-80 50 0 50 0 0 -300 0 -300 100 0 100 0 0 300 0 301 138 -3 137 -3 3 -297 2
-298 100 0 100 0 0 300 0 300 83 0 82 0 0 80 0 80 -82 0 -83 0 0 50 c0 78 23
92 150 94 l35 1 -3 75 c-2 42 -9 79 -15 83 -7 4 -57 6 -112 5 -88 -3 -106 -7
-153 -33 -80 -43 -96 -72 -102 -180 l-5 -90 -137 -2 -138 -2 0 45 c0 62 29 90
102 99 30 4 63 5 73 3 19 -3 20 2 16 72 -2 41 -8 78 -15 82 -24 16 -190 8
-240 -12z"/>
<path d="M735 1499 c-344 -20 -556 -73 -628 -158 -45 -54 -45 -122 4 -456 44
-307 162 -553 323 -673 136 -101 307 -154 501 -155 287 -2 521 109 661 313
l48 70 56 0 c162 0 346 113 419 258 46 91 64 173 58 257 -9 123 -38 183 -114
241 -52 39 -157 62 -215 46 -41 -11 -48 -4 -48 48 0 84 -131 149 -370 184
-215 32 -445 40 -695 25z m515 -129 c264 -22 420 -63 378 -98 -23 -18 -119
-41 -248 -59 -157 -21 -649 -24 -815 -5 -145 17 -254 40 -284 59 -21 13 -22
17 -8 30 28 28 193 58 422 76 97 8 450 6 555 -3z m664 -314 c71 -29 86 -159
31 -268 -34 -68 -60 -96 -110 -119 -40 -19 -105 -26 -105 -11 1 4 15 92 33
197 30 177 34 190 57 202 32 16 53 16 94 -1z"/>
<path d="M4204 1476 c-29 -29 -34 -41 -34 -80 0 -36 6 -52 28 -77 53 -59 161
-48 197 21 44 84 -14 170 -116 170 -33 0 -47 -6 -75 -34z"/>
<path d="M4860 1492 c-85 -22 -143 -58 -207 -124 -101 -107 -146 -237 -146
-418 0 -125 18 -198 71 -289 65 -111 198 -202 328 -223 138 -23 302 27 393
121 52 53 96 132 106 191 l6 35 -104 3 -104 4 -27 -46 c-59 -101 -173 -142
-272 -97 -65 30 -121 86 -143 144 -55 149 -25 374 61 454 38 35 109 63 163 63
93 0 162 -49 187 -131 8 -29 17 -39 32 -40 12 0 63 -3 115 -5 l94 -6 -6 47
c-15 106 -97 221 -195 273 -112 60 -233 75 -352 44z"/>
<path d="M2470 1128 c0 -402 5 -449 53 -529 70 -119 209 -178 390 -166 190 12
306 104 353 280 11 40 14 137 14 420 l0 367 -110 0 -110 0 0 -348 c0 -383 -5
-425 -57 -474 -41 -37 -66 -48 -117 -48 -82 0 -142 39 -177 115 -17 37 -19 71
-19 398 l0 357 -110 0 -110 0 0 -372z"/>
<path d="M5713 1216 c-167 -54 -264 -217 -250 -421 7 -106 36 -182 97 -248
140 -153 374 -154 526 -2 76 76 98 139 99 285 0 109 -2 119 -31 181 -42 89
-93 142 -171 181 -54 26 -79 32 -146 35 -51 2 -98 -2 -124 -11z m203 -197 c44
-40 64 -95 64 -179 0 -91 -13 -140 -47 -180 -71 -85 -175 -78 -234 16 -19 32
-24 55 -27 136 -4 90 -2 103 22 152 33 67 69 88 144 83 38 -3 59 -10 78 -28z"/>
<path d="M7412 1212 c-95 -34 -172 -113 -213 -219 -30 -79 -33 -241 -5 -327
37 -111 146 -202 275 -227 145 -28 312 45 372 162 34 67 31 69 -79 69 -86 0
-99 -2 -109 -20 -31 -48 -131 -67 -191 -36 -41 21 -73 68 -79 116 l-6 40 242
0 241 0 0 65 c0 171 -68 303 -187 361 -74 37 -184 43 -261 16z m163 -156 c41
-18 75 -69 75 -113 l0 -33 -129 0 c-72 0 -132 3 -134 8 -8 11 19 81 40 104 20
23 69 47 96 48 10 0 33 -6 52 -14z"/>
<path d="M8173 1216 c-95 -31 -166 -98 -217 -205 -29 -63 -31 -72 -31 -186 0
-116 1 -123 33 -187 64 -131 179 -201 327 -201 133 0 255 65 305 164 34 66 32
69 -72 69 -90 0 -93 -1 -126 -32 -31 -31 -37 -33 -107 -33 -64 0 -77 3 -100
25 -35 33 -55 72 -55 110 l0 30 240 0 240 0 0 53 c-1 235 -128 395 -320 404
-45 2 -92 -3 -117 -11z m152 -160 c41 -18 75 -69 75 -113 l0 -33 -129 0 c-72
0 -132 3 -134 8 -9 13 20 83 45 109 41 44 85 53 143 29z"/>
<path d="M3710 1199 c-25 -11 -62 -37 -82 -57 l-38 -36 0 52 0 52 -101 0 -102
0 4 -380 4 -380 102 0 101 0 4 248 c3 227 5 250 23 282 15 24 34 39 63 50 58
20 117 0 147 -50 18 -32 20 -54 23 -282 l3 -248 100 0 100 0 -3 298 c-3 276
-4 300 -24 342 -25 55 -81 105 -131 119 -61 17 -143 13 -193 -10z"/>
<path d="M4193 830 l2 -380 103 0 102 0 0 380 0 380 -105 0 -104 0 2 -380z"/>
</g>
</svg>
